# Blender v2.78 (sub 0) OBJ File: ''
# www.blender.org
mtllib testRoad.mtl
o Cube
v 2.000247 0.135645 -2.293448
v 2.000247 0.135645 2.293448
v -2.000247 0.135645 2.293448
v -2.000247 0.135645 -2.293450
v 2.000248 0.178188 -1.944669
v 2.000246 0.178188 1.944673
v -2.000247 0.178188 1.944669
v -2.000247 0.178188 -1.944671
v -14.444535 0.135645 2.293448
v -14.444535 0.135645 -2.293450
v -14.444539 0.178188 1.944669
v -14.444535 0.178188 -1.944671
v -20.019194 0.135645 0.489156
v -17.034531 0.135645 -2.993863
v -19.792248 0.178188 0.224313
v -17.261478 0.178188 -2.729022
v -23.304201 0.135614 -2.325827
v -20.319538 0.135614 -5.808845
v -23.077253 0.178158 -2.590669
v -20.546488 0.178158 -5.544005
v -25.694744 0.137829 -6.342791
v -21.169409 0.137829 -7.291749
v -25.350651 0.175878 -6.414949
v -21.513506 0.175878 -7.219595
v -25.325993 0.287370 -12.875275
v -21.055210 0.287370 -11.103382
v -25.001249 0.325419 -12.740543
v -21.379953 0.325419 -11.238115
v -22.915752 0.287333 -18.276119
v -19.575153 0.287333 -15.079311
v -22.661743 0.325382 -18.033041
v -19.829165 0.325382 -15.322392
v -16.881832 0.262713 -21.044092
v -16.441401 0.262713 -16.441353
v -16.848343 0.300762 -20.694109
v -16.474892 0.300762 -16.791338
v -5.360908 0.262649 -22.146519
v -4.920475 0.262649 -17.543781
v -5.327418 0.300697 -21.796537
v -4.953963 0.300697 -17.893764
v 3.869201 0.262591 -23.807655
v 6.624278 0.262591 -20.094336
v 4.078691 0.300639 -23.525303
v 6.414789 0.300639 -20.376692
v 12.347205 0.262508 -30.097868
v 15.102283 0.262508 -26.384550
v 12.556696 0.300556 -29.815514
v 14.892793 0.300556 -26.666906
v 17.518642 0.456785 -38.992149
v 22.023872 0.456785 -37.951920
v 17.861212 0.494833 -38.913052
v 21.681303 0.494833 -38.031021
v 17.518642 0.456785 -46.713978
v 22.023872 0.456785 -45.673748
v 17.861212 0.494833 -46.634880
v 21.681303 0.494833 -45.752850
v 22.087658 0.456721 -56.912552
v 25.693432 0.456721 -54.018147
v 22.361834 0.494770 -56.692467
v 25.419256 0.494770 -54.238235
v 28.474979 0.456575 -62.674915
v 29.434542 0.456575 -58.151817
v 28.547943 0.494624 -62.330990
v 29.361580 0.494624 -58.495747
v 39.319572 0.456440 -64.975571
v 40.279133 0.456440 -60.452469
v 39.392536 0.494489 -64.631645
v 40.206169 0.494489 -60.796398
v 50.752903 0.453041 -60.088123
v 47.356403 0.453041 -56.259968
v 50.462040 0.497575 -59.797050
v 47.647282 0.497575 -56.551056
v 51.818241 0.450052 -44.597530
v 47.651371 0.450052 -49.104782
v 51.501411 0.500563 -44.940243
v 47.968212 0.500563 -48.762058
v 38.668594 0.456307 -31.892653
v 35.529816 0.456307 -35.287830
v 38.429935 0.494355 -32.150810
v 35.768482 0.494355 -35.029667
v 53.548470 0.501917 -52.475689
v 53.889168 0.448699 -52.469067
v 48.730206 0.448699 -52.556133
v 49.070911 0.501917 -52.549507
v 29.247475 0.456322 -23.183001
v 26.108698 0.456322 -26.578180
v 29.008816 0.494371 -23.441158
v 26.347363 0.494371 -26.320015
v 23.156752 0.456332 -9.840760
v 20.017975 0.456332 -13.235939
v 22.918093 0.494381 -10.098917
v 20.256639 0.494381 -12.977775
v 23.941244 0.456325 -23.018534
v 24.179909 0.494374 -22.760368
v 27.080021 0.456325 -19.623354
v 26.841362 0.494374 -19.881512
v 30.609335 0.494363 -30.674841
v 33.270790 0.494363 -27.795984
v 33.509445 0.456315 -27.537827
v 30.370668 0.456315 -30.933006
v 14.593115 0.456345 -2.286049
v 13.396489 0.456345 -6.752285
v 14.502131 0.494393 -2.625644
v 13.487477 0.494393 -6.412677
v 10.863280 0.262549 -22.816061
v 10.653790 0.300598 -23.098417
v 8.108203 0.262549 -26.529379
v 8.317694 0.300598 -26.247026
v 18.838150 0.397695 -32.348961
v 15.760057 0.397695 -34.364285
v 15.484027 0.359646 -34.545010
v 19.114180 0.359646 -32.168236
v 19.151978 0.456753 -51.813263
v 23.207479 0.456753 -49.845947
v 22.899107 0.494802 -49.995541
v 19.460352 0.494802 -51.663677
v 34.856834 0.456508 -59.923615
v 34.783875 0.494556 -60.267544
v 33.897274 0.456508 -64.446716
v 33.970242 0.494556 -64.102791
v 43.926727 0.496032 -59.886265
v 45.141724 0.496032 -63.426884
v 45.250668 0.454740 -63.744381
v 43.817768 0.454740 -59.568756
v 53.445847 0.501240 -48.707966
v 48.190788 0.449375 -50.830460
v 53.774612 0.449375 -48.533302
v 48.519562 0.501240 -50.655785
v 53.241295 0.450870 -56.278595
v 48.359097 0.499746 -54.550282
v 52.925514 0.499746 -56.136368
v 48.043304 0.450870 -54.408051
v 45.787006 0.496803 -58.218662
v 45.587086 0.453891 -57.914364
v 48.588966 0.496803 -61.611969
v 48.788876 0.453891 -61.916252
v 19.009811 0.494383 -11.230836
v 21.367937 0.494383 -8.184699
v 21.579395 0.456335 -7.911542
v 18.798347 0.456335 -11.504000
v 20.896147 0.456331 -14.937329
v 24.034924 0.456331 -11.542151
v 21.134811 0.494379 -14.679165
v 23.796265 0.494379 -11.800308
vn 0.0000 -1.0000 0.0000
vn 0.0000 1.0000 -0.0000
vn -0.0693 0.9918 -0.1070
vn -0.0000 0.9926 0.1211
vn 0.0000 0.9926 -0.1211
vn -0.0396 0.9916 0.1228
vn 0.0343 0.9916 -0.1248
vn 0.1046 0.9927 -0.0602
vn -0.0788 0.9926 0.0919
vn 0.0788 0.9926 -0.0919
vn -0.0027 0.9996 0.0288
vn -0.0004 -1.0000 -0.0006
vn -0.0004 1.0000 -0.0006
vn -0.1037 0.9927 0.0617
vn -0.1013 0.9938 -0.0450
vn -0.1146 0.9933 0.0167
vn 0.1091 0.9932 0.0414
vn 0.0027 -0.9996 -0.0288
vn 0.0521 0.9934 0.1022
vn 0.1049 0.9937 0.0394
vn -0.0044 -1.0000 0.0021
vn 0.0044 1.0000 -0.0021
vn -0.0444 0.9934 -0.1059
vn 0.0242 0.9936 0.1103
vn -0.0102 0.9942 -0.1071
vn 0.0103 0.9942 0.1071
vn 0.0694 0.9942 0.0825
vn -0.0203 0.9935 -0.1118
vn -0.0066 0.9999 0.0158
vn -0.0694 0.9942 -0.0825
vn 0.1104 0.9939 0.0000
vn -0.1100 0.9935 -0.0291
vn 0.0951 0.9934 0.0645
vn 0.0066 -0.9999 -0.0158
vn -0.1104 0.9939 0.0000
vn -0.0951 0.9940 -0.0548
vn 0.0943 0.9940 0.0561
vn 0.0105 0.9941 0.1077
vn -0.0780 0.9932 -0.0860
vn 0.0875 0.9929 0.0801
vn -0.0002 1.0000 -0.0002
vn -0.0105 0.9941 -0.1078
vn 0.1119 0.9921 0.0567
vn 0.0777 0.9936 -0.0819
vn -0.0761 0.9936 0.0832
vn -0.0003 -1.0000 -0.0002
vn -0.0811 0.9941 -0.0716
vn -0.1266 0.9912 -0.0382
vn -0.0001 -1.0000 0.0002
vn -0.0001 1.0000 0.0002
vn -0.0003 -1.0000 0.0002
vn -0.0002 1.0000 0.0002
vn 0.0750 0.9942 0.0772
vn -0.0001 1.0000 -0.0007
vn -0.0001 -1.0000 -0.0007
vn -0.1430 0.9884 0.0519
vn 0.1485 0.9886 -0.0253
vn -0.1016 0.9934 -0.0525
vn 0.0770 0.9942 0.0753
vn -0.0770 0.9942 -0.0753
vn 0.1016 0.9934 0.0525
vn 0.0955 0.9937 0.0582
vn -0.0955 0.9937 -0.0582
vn -0.0695 0.9942 -0.0823
vn 0.0695 0.9942 0.0823
vn -0.0217 0.9997 0.0125
vn 0.0712 0.9935 0.0882
vn -0.0754 0.9934 -0.0861
vn -0.0583 0.9942 -0.0907
vn 0.0583 0.9942 0.0907
vn 0.0109 -0.9999 -0.0114
vn 0.0840 0.9936 0.0752
vn -0.1053 0.9930 -0.0528
vn -0.0109 0.9999 0.0114
vn 0.1056 0.9940 0.0301
vn -0.1045 0.9940 -0.0334
vn -0.0336 0.9941 -0.1029
vn 0.0336 0.9941 0.1028
vn -0.0004 -1.0000 -0.0000
vn -0.0290 0.9927 0.1175
vn 0.0246 0.9927 -0.1177
vn -0.0003 1.0000 -0.0000
vn -0.1435 0.9887 -0.0432
vn 0.1539 0.9881 0.0043
vn 0.1037 0.9922 -0.0687
vn -0.1212 0.9916 0.0440
vn -0.0002 -1.0000 -0.0001
vn -0.0845 0.9921 0.0924
vn 0.0557 0.9927 -0.1068
vn -0.0002 1.0000 -0.0001
vn -0.0915 0.9937 -0.0648
vn 0.0857 0.9939 0.0697
vn 0.1124 0.9928 0.0424
vn -0.1124 0.9928 -0.0424
vn 0.0164 0.9933 0.1141
vn 0.0255 -0.9997 -0.0034
usemtl Material
s off
f 1//1 2//1 3//1 4//1
f 5//2 8//2 7//2 6//2
f 5//3 104//3 102//3 1//3
f 2//4 6//4 7//4 3//4
f 3//4 7//4 11//4 9//4
f 5//5 1//5 4//5 8//5
f 10//1 9//1 13//1 14//1
f 7//2 8//2 12//2 11//2
f 8//5 4//5 10//5 12//5
f 4//1 3//1 9//1 10//1
f 15//2 16//2 20//2 19//2
f 11//2 12//2 16//2 15//2
f 9//6 11//6 15//6 13//6
f 12//7 10//7 14//7 16//7
f 20//8 18//8 22//8 24//8
f 13//9 15//9 19//9 17//9
f 16//10 14//10 18//10 20//10
f 14//1 13//1 17//1 18//1
f 23//11 24//11 28//11 27//11
f 18//12 17//12 21//12 22//12
f 19//13 20//13 24//13 23//13
f 17//14 19//14 23//14 21//14
f 25//15 27//15 31//15 29//15
f 21//16 23//16 27//16 25//16
f 24//17 22//17 26//17 28//17
f 22//18 21//18 25//18 26//18
f 32//19 30//19 34//19 36//19
f 28//20 26//20 30//20 32//20
f 26//1 25//1 29//1 30//1
f 27//2 28//2 32//2 31//2
f 35//2 36//2 40//2 39//2
f 30//21 29//21 33//21 34//21
f 31//22 32//22 36//22 35//22
f 29//23 31//23 35//23 33//23
f 40//24 38//24 42//24 44//24
f 33//25 35//25 39//25 37//25
f 36//26 34//26 38//26 40//26
f 34//1 33//1 37//1 38//1
f 106//27 105//27 46//27 48//27
f 38//1 37//1 41//1 42//1
f 39//2 40//2 44//2 43//2
f 37//28 39//28 43//28 41//28
f 110//29 109//29 52//29 51//29
f 105//1 107//1 45//1 46//1
f 108//2 106//2 48//2 47//2
f 107//30 108//30 47//30 45//30
f 52//31 50//31 54//31 56//31
f 111//32 110//32 51//32 49//32
f 109//33 112//33 50//33 52//33
f 112//34 111//34 49//34 50//34
f 114//1 113//1 57//1 58//1
f 50//1 49//1 53//1 54//1
f 51//2 52//2 56//2 55//2
f 49//35 51//35 55//35 53//35
f 59//2 60//2 64//2 63//2
f 116//2 115//2 60//2 59//2
f 113//36 116//36 59//36 57//36
f 115//37 114//37 58//37 60//37
f 118//38 117//38 66//38 68//38
f 57//39 59//39 63//39 61//39
f 60//40 58//40 62//40 64//40
f 58//1 57//1 61//1 62//1
f 135//41 133//41 72//41 71//41
f 117//1 119//1 65//1 66//1
f 120//2 118//2 68//2 67//2
f 119//42 120//42 67//42 65//42
f 127//43 125//43 75//43 73//43
f 136//44 135//44 71//44 69//44
f 133//45 134//45 70//45 72//45
f 134//46 136//46 69//46 70//46
f 76//47 74//47 78//47 80//47
f 128//48 126//48 74//48 76//48
f 126//49 127//49 73//49 74//49
f 125//50 128//50 76//50 75//50
f 98//2 97//2 88//2 87//2
f 74//51 73//51 77//51 78//51
f 75//52 76//52 80//52 79//52
f 73//53 75//53 79//53 77//53
f 131//54 130//54 84//54 81//54
f 132//55 129//55 82//55 83//55
f 130//56 132//56 83//56 84//56
f 129//57 131//57 81//57 82//57
f 143//58 141//58 90//58 92//58
f 99//59 98//59 87//59 85//59
f 97//60 100//60 86//60 88//60
f 100//1 99//1 85//1 86//1
f 138//2 137//2 104//2 103//2
f 141//1 142//1 89//1 90//1
f 144//2 143//2 92//2 91//2
f 142//61 144//61 91//61 89//61
f 85//62 87//62 96//62 95//62
f 87//2 88//2 94//2 96//2
f 86//1 85//1 95//1 93//1
f 88//63 86//63 93//63 94//63
f 78//1 77//1 99//1 100//1
f 80//64 78//64 100//64 97//64
f 77//65 79//65 98//65 99//65
f 79//2 80//2 97//2 98//2
f 104//66 5//66 2//66 101//66
f 139//67 138//67 103//67 101//67
f 137//68 140//68 102//68 104//68
f 140//1 139//1 101//1 102//1
f 41//69 43//69 108//69 107//69
f 43//2 44//2 106//2 108//2
f 42//1 41//1 107//1 105//1
f 44//70 42//70 105//70 106//70
f 46//71 45//71 111//71 112//71
f 48//72 46//72 112//72 109//72
f 45//73 47//73 110//73 111//73
f 47//74 48//74 109//74 110//74
f 56//75 54//75 114//75 115//75
f 53//76 55//76 116//76 113//76
f 55//2 56//2 115//2 116//2
f 54//1 53//1 113//1 114//1
f 61//77 63//77 120//77 119//77
f 63//2 64//2 118//2 120//2
f 62//1 61//1 119//1 117//1
f 64//78 62//78 117//78 118//78
f 66//79 65//79 123//79 124//79
f 68//80 66//80 124//80 121//80
f 65//81 67//81 122//81 123//81
f 67//82 68//82 121//82 122//82
f 81//50 84//50 128//50 125//50
f 83//49 82//49 127//49 126//49
f 84//83 83//83 126//83 128//83
f 82//84 81//84 125//84 127//84
f 69//85 71//85 131//85 129//85
f 72//86 70//86 132//86 130//86
f 70//12 69//12 129//12 132//12
f 71//13 72//13 130//13 131//13
f 124//87 123//87 136//87 134//87
f 121//88 124//88 134//88 133//88
f 123//89 122//89 135//89 136//89
f 122//90 121//90 133//90 135//90
f 90//1 89//1 139//1 140//1
f 92//91 90//91 140//91 137//91
f 89//92 91//92 138//92 139//92
f 91//2 92//2 137//2 138//2
f 95//93 96//93 144//93 142//93
f 96//2 94//2 143//2 144//2
f 93//1 95//1 142//1 141//1
f 94//94 93//94 141//94 143//94
f 6//95 2//95 101//95 103//95
f 102//96 101//96 2//96 1//96
